<svg width="18" height="19" viewBox="0 0 18 19" fill="none" xmlns="http://www.w3.org/2000/svg">
<g id="Icons\local_mall">
<mask id="mask0_611_367" style="mask-type:alpha" maskUnits="userSpaceOnUse" x="0" y="0" width="18" height="19">
<rect id="Bounding box" y="0.742981" width="18" height="18" fill="#D9D9D9"/>
</mask>
<g mask="url(#mask0_611_367)">
<path id="local_mall" d="M3.75 17.243C3.3375 17.243 2.98425 17.0962 2.69025 16.8027C2.39675 16.5087 2.25 16.1555 2.25 15.743V6.74298C2.25 6.33048 2.39675 5.97748 2.69025 5.68398C2.98425 5.38998 3.3375 5.24298 3.75 5.24298H5.25C5.25 4.20548 5.61575 3.32098 6.34725 2.58948C7.07825 1.85848 7.9625 1.49298 9 1.49298C10.0375 1.49298 10.922 1.85848 11.6535 2.58948C12.3845 3.32098 12.75 4.20548 12.75 5.24298H14.25C14.6625 5.24298 15.0157 5.38998 15.3097 5.68398C15.6033 5.97748 15.75 6.33048 15.75 6.74298V15.743C15.75 16.1555 15.6033 16.5087 15.3097 16.8027C15.0157 17.0962 14.6625 17.243 14.25 17.243H3.75ZM3.75 15.743H14.25V6.74298H3.75V15.743ZM9 11.243C10.0375 11.243 10.922 10.8772 11.6535 10.1457C12.3845 9.41473 12.75 8.53048 12.75 7.49298H11.25C11.25 8.11798 11.0312 8.64923 10.5938 9.08673C10.1562 9.52423 9.625 9.74298 9 9.74298C8.375 9.74298 7.84375 9.52423 7.40625 9.08673C6.96875 8.64923 6.75 8.11798 6.75 7.49298H5.25C5.25 8.53048 5.61575 9.41473 6.34725 10.1457C7.07825 10.8772 7.9625 11.243 9 11.243ZM6.75 5.24298H11.25C11.25 4.61798 11.0312 4.08673 10.5938 3.64923C10.1562 3.21173 9.625 2.99298 9 2.99298C8.375 2.99298 7.84375 3.21173 7.40625 3.64923C6.96875 4.08673 6.75 4.61798 6.75 5.24298Z" fill="white"/>
</g>
</g>
</svg>
