<svg width="48" height="48" viewBox="0 0 48 48" fill="none" xmlns="http://www.w3.org/2000/svg">
<g id="psychiatry">
<mask id="mask0_166_115" style="mask-type:alpha" maskUnits="userSpaceOnUse" x="0" y="0" width="48" height="48">
<rect id="Bounding box" width="48" height="48" fill="#D9D9D9"/>
</mask>
<g mask="url(#mask0_166_115)">
<path id="psychiatry_2" d="M22 42V26.05C19.8667 26.05 17.8167 25.6413 15.85 24.824C13.8833 24.008 12.15 22.85 10.65 21.35C9.15 19.85 8 18.1167 7.2 16.15C6.4 14.1833 6 12.1333 6 10V6H10C12.1 6 14.1333 6.408 16.1 7.224C18.0667 8.04133 19.8 9.2 21.3 10.7C22.3333 11.7333 23.192 12.8667 23.876 14.1C24.5587 15.3333 25.0833 16.65 25.45 18.05C25.6167 17.8167 25.8 17.592 26 17.376C26.2 17.1587 26.4167 16.9333 26.65 16.7C28.15 15.2 29.8833 14.0413 31.85 13.224C33.8167 12.408 35.8667 12 38 12H42V16C42 18.1333 41.592 20.1833 40.776 22.15C39.9587 24.1167 38.8 25.85 37.3 27.35C35.8 28.85 34.0747 30 32.124 30.8C30.1747 31.6 28.1333 32 26 32V42H22Z" fill="#1C1B1F"/>
</g>
</g>
</svg>
